# xmcd
#
# Track frame offsets: 
#        150
#        21812
#        40172
#        63560
#        84207
#        109112
#        128055
#        149212
#        170355
#        195190
#        213420
#        237415
#        256095
#        273595
#        292400
#        313142
#
# Disc length: 4413 seconds
#
# Revision: 0
# Processed by: cddbd v1.5.2PL0 Copyright (c) Steve Scherf et al.
# Submitted via: ExactAudioCopyFreeDBPlugin 1.0
#
DISCID=f0113b10
DTITLE=Celine Dion - Celine Dion   All The Way...A Decade Of Song
DYEAR=1999
DGENRE=Pop
TTITLE0=The Power Of Love
TTITLE1=Beauty And The Beast (Ompst)
TTITLE2=All By Myself
TTITLE3=Because You Loved Me
TTITLE4=It's All Coming Back To Me Now
TTITLE5=Immortality
TTITLE6=To Love You More
TTITLE7=MY HEART WILL GO ON (Love Theme From "TITANIC")
TTITLE8=I'M YOUR ANGEL (Duet with R. Kelly)
TTITLE9=That's The Way It Is
TTITLE10=If Walls Could Talk
TTITLE11=The First Time Ever I Saw Your Face
TTITLE12=All The Way
TTITLE13=Then You Look At Me
TTITLE14=I Want You To Need Me
TTITLE15=Live for The One I Love
EXTD=
EXTT0=
EXTT1=
EXTT2=
EXTT3=
EXTT4=
EXTT5=
EXTT6=
EXTT7=
EXTT8=
EXTT9=
EXTT10=
EXTT11=
EXTT12=
EXTT13=
EXTT14=
EXTT15=
PLAYORDER=
